<svg width="16" height="16" viewBox="0 0 16 16" fill="none" xmlns="http://www.w3.org/2000/svg">
<g clip-path="url(#clip0)">
<path d="M7.12402 15.5743V9.63485C7.12402 9.13853 7.52646 8.7356 8.02302 8.7356C8.51959 8.7356 8.92202 9.1385 8.92202 9.63485V15.5743C8.92202 16.0706 7.12402 16.0706 7.12402 15.5743V15.5743Z" fill="#8E6049"/>
<path d="M12.8573 13.4696C11.9189 14.4992 10.1934 14.8558 8.02307 14.8558C5.91923 14.8558 4.40907 14.7613 3.22554 13.5388C3.2152 13.5284 3.20398 13.5188 3.19201 13.5103C2.9316 13.3209 2.84316 12.8664 3.10638 12.5775C3.68538 11.9419 4.29716 11.0799 4.89154 10.1391C5.00316 9.96243 4.85369 9.73543 4.64748 9.76928C4.54731 9.78569 4.44686 9.8003 4.34616 9.81309C3.9461 9.86393 3.71188 9.2915 4.00604 8.96862C4.65513 8.25612 5.35382 7.20097 5.99963 6.10484C6.10813 5.92072 5.94279 5.69662 5.73457 5.74481C5.52123 5.79418 5.31157 5.82965 5.11319 5.85487C4.79713 5.89503 4.61207 5.44278 4.84448 5.18768C5.83919 4.09581 6.98104 1.98597 7.67973 0.596528C7.68446 0.586849 7.68859 0.576881 7.69207 0.566684C7.72726 0.466934 7.79588 0.395434 7.87594 0.358809C7.91465 0.340314 7.95705 0.330827 7.99994 0.331059C8.04284 0.330831 8.08524 0.340318 8.12394 0.358809C8.20401 0.395434 8.27263 0.466934 8.30782 0.566684C8.3113 0.576881 8.31543 0.586849 8.32016 0.596528C9.01885 1.98597 10.1607 4.09584 11.1554 5.18768C11.3878 5.44278 11.2028 5.89506 10.8867 5.85487C10.6884 5.82965 10.4787 5.79418 10.2653 5.74481C10.0571 5.69662 9.89179 5.92072 10.0003 6.10484C10.6461 7.20097 11.3448 8.25612 11.9939 8.96862C12.288 9.29153 12.0538 9.86393 11.6537 9.81309C11.5553 9.80059 11.4547 9.78606 11.3524 9.76928C11.1462 9.73543 10.9967 9.96243 11.1084 10.1391C11.7027 11.0798 12.3145 11.9419 12.8935 12.5775C13.0669 12.7678 13.0875 13.0302 13.0071 13.2412C12.9953 13.2908 12.9679 13.3422 12.923 13.3955C12.9034 13.4221 12.8814 13.4469 12.8573 13.4696V13.4696Z" fill="#149314"/>
<path d="M8.07679 0.0477187L8.43136 0.766125C8.4375 0.778568 8.44657 0.789331 8.4578 0.797486C8.46902 0.805641 8.48206 0.810944 8.49579 0.812937L9.28861 0.928156C9.35879 0.938344 9.38682 1.02463 9.33604 1.07416L8.76236 1.63338C8.75242 1.64306 8.74498 1.65502 8.74069 1.66821C8.7364 1.68141 8.73539 1.69545 8.73773 1.70913L8.87317 2.49875C8.88517 2.56866 8.81176 2.622 8.74898 2.58897L8.03985 2.21616C8.02757 2.20971 8.0139 2.20634 8.00003 2.20634C7.98615 2.20634 7.97248 2.20971 7.9602 2.21616L7.25107 2.58897C7.18829 2.62197 7.11489 2.56866 7.12689 2.49875L7.26232 1.70913C7.26467 1.69545 7.26365 1.68141 7.25936 1.66821C7.25507 1.65502 7.24764 1.64306 7.2377 1.63338L6.66401 1.07416C6.6132 1.02463 6.64123 0.938375 6.71145 0.928156L7.50426 0.812937C7.51799 0.810939 7.53103 0.805634 7.54225 0.79748C7.55348 0.789325 7.56255 0.778565 7.5687 0.766125L7.92326 0.0477187C7.9547 -0.0159063 8.04539 -0.0159063 8.07679 0.0477187V0.0477187Z" fill="#FFB636"/>
<path d="M7.85809 6.76815C7.85809 6.97087 7.69377 7.13519 7.49105 7.13519C7.28834 7.13519 7.12402 6.97087 7.12402 6.76815C7.12402 6.56544 7.28834 6.40112 7.49105 6.40112C7.69377 6.40112 7.85809 6.56544 7.85809 6.76815ZM10.2732 11.1573C9.85612 11.1573 9.51799 11.4954 9.51799 11.9125C9.51799 12.3296 9.85609 12.6677 10.2732 12.6677C10.6902 12.6677 11.0284 12.3296 11.0284 11.9125C11.0284 11.4954 10.6902 11.1573 10.2732 11.1573Z" fill="#FFD469"/>
<path d="M10.5742 8.20736C10.5742 8.66033 10.207 9.02752 9.75408 9.02752C9.30111 9.02752 8.93392 8.66033 8.93392 8.20736C8.93392 7.75439 9.30111 7.38721 9.75408 7.38721C10.207 7.38724 10.5742 7.75442 10.5742 8.20736ZM6.48192 4.19067C6.27327 4.19067 6.10414 4.35983 6.10414 4.56845C6.10414 4.77708 6.2733 4.94624 6.48192 4.94624C6.69055 4.94624 6.8597 4.77708 6.8597 4.56845C6.8597 4.35983 6.69058 4.19067 6.48192 4.19067ZM5.84849 11.9059C5.51324 11.9059 5.24146 12.1776 5.24146 12.5129C5.24146 12.8481 5.51324 13.1199 5.84849 13.1199C6.18374 13.1199 6.45552 12.8481 6.45552 12.5129C6.45552 12.1776 6.18374 11.9059 5.84849 11.9059Z" fill="#FF473E"/>
<path d="M8.93403 3.13647L9.15266 3.36801L9.47097 3.35888L9.46184 3.67719L9.69338 3.89582L9.46184 4.11444L9.47097 4.43276L9.15266 4.42363L8.93403 4.65516L8.71541 4.42363L8.39709 4.43276L8.40622 4.11444L8.17469 3.89582L8.40622 3.67719L8.39709 3.35888L8.71541 3.36801L8.93403 3.13647V3.13647ZM6.26338 9.2591L5.94506 9.24997L5.95419 9.56829L5.72266 9.78691L5.95419 10.0055L5.94506 10.3238L6.26338 10.3147L6.482 10.5463L6.70063 10.3147L7.01894 10.3238L7.00981 10.0055L7.24134 9.78691L7.00981 9.56829L7.01894 9.24997L6.70063 9.2591L6.482 9.02757L6.26338 9.2591Z" fill="#76DFFF"/>
</g>
<defs>
<clipPath id="clip0">
<rect width="16" height="16" fill="white"/>
</clipPath>
</defs>
</svg>
